PathFileType	4	(X/Y/Z)	C:\Users\italobelli\Desktop\GitHub\PTbot_officialCBL\Personal_Results\ABD03_noisy1.trc
DataRate	CameraRate	NumFrames	NumMarkers	Units	OrigDataRate	OrigDataStartFrame	OrigNumFrames
106.533333	106.533333	25	9	m	106.533333	101	800
Frame#	Time		gu		centelbow		EpL		centpxt8		centijc7		ij		ts		aa		ai
			X1	Y1	Z1	X2	Y2	Z2	X3	Y3	Z3	X4	Y4	Z4	X5	Y5	Z5	X6	Y6	Z6	X7	Y7	Z7	X8	Y8	Z8	X9	Y9	Z9

101	0.93867	-0.10271	0.022983	0.14707	-0.14385	-0.12851	0.33129	-0.16149	-0.10398	0.34055	-0.046816	-0.15316	-0.008669	-0.046816	0.031938	-0.008669	0	0	0	-0.12183	0.013956	0.023647	-0.13649	0.04818	0.13697	-0.1266	-0.093036	0.061019
102	0.94806	-0.10267	0.023493	0.14685	-0.14416	-0.12585	0.33327	-0.1619	-0.10115	0.34222	-0.046816	-0.15316	-0.008669	-0.046816	0.031938	-0.008669	0	0	0	-0.12173	0.013655	0.023561	-0.13651	0.048482	0.1367	-0.12636	-0.093167	0.061502
103	0.95745	-0.10263	0.023994	0.14663	-0.14446	-0.12321	0.33512	-0.16231	-0.098342	0.34379	-0.046816	-0.15316	-0.008669	-0.046816	0.031938	-0.008669	0	0	0	-0.12163	0.013358	0.023484	-0.13652	0.048778	0.13643	-0.12614	-0.093291	0.061984
104	0.96683	-0.10259	0.024486	0.14641	-0.14476	-0.12059	0.33685	-0.1627	-0.095568	0.34526	-0.046816	-0.15316	-0.008669	-0.046816	0.031938	-0.008669	0	0	0	-0.12155	0.013067	0.023417	-0.13654	0.04907	0.13616	-0.12593	-0.093407	0.062464
105	0.97622	-0.10254	0.024968	0.14619	-0.14505	-0.11799	0.33845	-0.16308	-0.092828	0.3466	-0.046816	-0.15316	-0.008669	-0.046816	0.031938	-0.008669	0	0	0	-0.12147	0.012779	0.02336	-0.13656	0.049356	0.13591	-0.12573	-0.093515	0.062942
106	0.98561	-0.1025	0.02544	0.14597	-0.14534	-0.11542	0.33991	-0.16345	-0.090123	0.34783	-0.046816	-0.15316	-0.008669	-0.046816	0.031938	-0.008669	0	0	0	-0.1214	0.012498	0.023315	-0.13657	0.049635	0.13566	-0.12555	-0.093613	0.063419
107	0.99499	-0.10246	0.025901	0.14576	-0.14561	-0.11288	0.34122	-0.16381	-0.087456	0.34893	-0.046816	-0.15316	-0.008669	-0.046816	0.031938	-0.008669	0	0	0	-0.12133	0.012221	0.02328	-0.13659	0.049909	0.13542	-0.12538	-0.093703	0.063893
108	1.0044	-0.10242	0.026353	0.14554	-0.14588	-0.11035	0.3424	-0.16415	-0.084824	0.34992	-0.046816	-0.15316	-0.008669	-0.046816	0.031938	-0.008669	0	0	0	-0.12127	0.01195	0.023256	-0.13661	0.050176	0.13518	-0.12522	-0.093784	0.064366
109	1.0138	-0.10238	0.026804	0.14532	-0.14615	-0.10783	0.34356	-0.16448	-0.082192	0.35088	-0.046816	-0.15316	-0.008669	-0.046816	0.031938	-0.008669	0	0	0	-0.12122	0.011678	0.023237	-0.13662	0.050442	0.13495	-0.12506	-0.09386	0.064844
110	1.0232	-0.10233	0.027256	0.1451	-0.1464	-0.10528	0.34471	-0.16479	-0.079553	0.35182	-0.046816	-0.15316	-0.008669	-0.046816	0.031938	-0.008669	0	0	0	-0.12117	0.011404	0.023224	-0.13664	0.050708	0.13473	-0.12491	-0.093933	0.065329
111	1.0325	-0.10228	0.02771	0.14488	-0.14664	-0.10273	0.34585	-0.16509	-0.076909	0.35274	-0.046816	-0.15316	-0.008669	-0.046816	0.031938	-0.008669	0	0	0	-0.12112	0.01113	0.023214	-0.13665	0.050973	0.1345	-0.12476	-0.094002	0.06582
112	1.0419	-0.10222	0.028164	0.14466	-0.14688	-0.10016	0.34698	-0.16537	-0.07426	0.35365	-0.046816	-0.15316	-0.008669	-0.046816	0.031938	-0.008669	0	0	0	-0.12107	0.010854	0.023209	-0.13666	0.051237	0.13428	-0.12461	-0.094068	0.066317
113	1.0513	-0.10216	0.028619	0.14444	-0.1471	-0.097588	0.34811	-0.16565	-0.071605	0.35454	-0.046816	-0.15316	-0.008669	-0.046816	0.031938	-0.008669	0	0	0	-0.12102	0.010577	0.023208	-0.13667	0.051501	0.13406	-0.12446	-0.09413	0.06682
114	1.0607	-0.1021	0.029075	0.14421	-0.14732	-0.095001	0.34922	-0.16591	-0.068946	0.35542	-0.046816	-0.15316	-0.008669	-0.046816	0.031938	-0.008669	0	0	0	-0.12098	0.0103	0.023211	-0.13668	0.051764	0.13385	-0.12432	-0.094188	0.067329
115	1.0701	-0.10203	0.029531	0.14399	-0.14753	-0.092404	0.35032	-0.16615	-0.066283	0.35628	-0.046816	-0.15316	-0.008669	-0.046816	0.031938	-0.008669	0	0	0	-0.12094	0.010021	0.023218	-0.13669	0.052026	0.13364	-0.12418	-0.094243	0.067842
116	1.0795	-0.10197	0.029988	0.14377	-0.14774	-0.089798	0.35142	-0.16639	-0.063616	0.35712	-0.046816	-0.15316	-0.008669	-0.046816	0.031938	-0.008669	0	0	0	-0.1209	0.009742	0.023229	-0.13669	0.052288	0.13343	-0.12404	-0.094295	0.068361
117	1.0889	-0.1019	0.030444	0.14354	-0.14794	-0.087182	0.3525	-0.16661	-0.060945	0.35794	-0.046816	-0.15316	-0.008669	-0.046816	0.031938	-0.008669	0	0	0	-0.12086	0.0094623	0.023244	-0.1367	0.052549	0.13322	-0.1239	-0.094343	0.068885
118	1.0982	-0.10182	0.030901	0.14331	-0.14813	-0.084559	0.35357	-0.16683	-0.058272	0.35874	-0.046816	-0.15316	-0.008669	-0.046816	0.031938	-0.008669	0	0	0	-0.12083	0.0091822	0.023263	-0.1367	0.05281	0.13302	-0.12376	-0.094388	0.069412
119	1.1076	-0.10175	0.031358	0.14309	-0.14832	-0.081928	0.35462	-0.16703	-0.055596	0.35952	-0.046816	-0.15316	-0.008669	-0.046816	0.031938	-0.008669	0	0	0	-0.1208	0.0089017	0.023285	-0.1367	0.05307	0.13281	-0.12363	-0.09443	0.069945
120	1.117	-0.10167	0.031814	0.14286	-0.1485	-0.07929	0.35566	-0.16723	-0.052918	0.36028	-0.046816	-0.15316	-0.008669	-0.046816	0.031938	-0.008669	0	0	0	-0.12077	0.0086211	0.02331	-0.13671	0.053329	0.13261	-0.1235	-0.094468	0.070481
121	1.1264	-0.1016	0.03227	0.14263	-0.14868	-0.076645	0.35668	-0.16742	-0.050239	0.36102	-0.046816	-0.15316	-0.008669	-0.046816	0.031938	-0.008669	0	0	0	-0.12074	0.0083403	0.023339	-0.13671	0.053588	0.13242	-0.12338	-0.094503	0.07102
122	1.1358	-0.10152	0.032725	0.1424	-0.14885	-0.073994	0.35769	-0.1676	-0.047558	0.36174	-0.046816	-0.15316	-0.008669	-0.046816	0.031938	-0.008669	0	0	0	-0.12071	0.0080595	0.023371	-0.13671	0.053846	0.13222	-0.12325	-0.094535	0.071564
123	1.1452	-0.10143	0.033179	0.14217	-0.14902	-0.071338	0.35868	-0.16777	-0.044876	0.36244	-0.046816	-0.15316	-0.008669	-0.046816	0.031938	-0.008669	0	0	0	-0.12069	0.0077789	0.023406	-0.13671	0.054103	0.13202	-0.12313	-0.094564	0.07211
124	1.1546	-0.10135	0.033632	0.14194	-0.14919	-0.068676	0.35965	-0.16794	-0.042194	0.36312	-0.046816	-0.15316	-0.008669	-0.046816	0.031938	-0.008669	0	0	0	-0.12067	0.0074986	0.023444	-0.13671	0.05436	0.13183	-0.12302	-0.094589	0.072659
125	1.164	-0.10127	0.034085	0.14171	-0.14935	-0.066011	0.3606	-0.1681	-0.039512	0.36377	-0.046816	-0.15316	-0.008669	-0.046816	0.031938	-0.008669	0	0	0	-0.12065	0.0072185	0.023485	-0.13671	0.054616	0.13164	-0.1229	-0.094611	0.073211
